<svg width="14" height="15" viewBox="0 0 14 15" fill="none" xmlns="http://www.w3.org/2000/svg">
<path d="M12.3594 0.0325317H1.64062C0.735984 0.0325317 0 0.768516 0 1.67316V12.3919C0 13.2965 0.735984 14.0325 1.64062 14.0325H12.3594C13.264 14.0325 14 13.2965 14 12.3919V1.67316C14 0.768516 13.264 0.0325317 12.3594 0.0325317ZM12.9062 12.3919C12.9062 12.6935 12.6609 12.9388 12.3594 12.9388H9.24219V8.48175H10.9318L11.2109 6.78644H9.24219V5.61066C9.24219 5.1465 9.59834 4.79034 10.0625 4.79034H11.1836V3.09503H10.0625C8.67007 3.09503 7.54748 4.22296 7.54748 5.61541V6.78644H5.90625V8.48175H7.54748V12.9388H1.64062C1.33908 12.9388 1.09375 12.6935 1.09375 12.3919V1.67316C1.09375 1.37161 1.33908 1.12628 1.64062 1.12628H12.3594C12.6609 1.12628 12.9062 1.37161 12.9062 1.67316V12.3919Z" fill="#333333"/>
</svg>
