<svg width="15" height="14" viewBox="0 0 15 14" fill="none" xmlns="http://www.w3.org/2000/svg">
<path d="M14.9398 4.11605C14.907 3.37217 14.7866 2.86077 14.6143 2.41762C14.4365 1.94724 14.1629 1.52611 13.8046 1.17601C13.4544 0.820475 13.0304 0.544206 12.5654 0.369214C12.1196 0.196893 11.6108 0.0765991 10.8667 0.0438014C10.1172 0.00822611 9.8792 0 7.97807 0C6.07694 0 5.83897 0.00822611 5.09218 0.0410238C4.34816 0.0738214 3.83665 0.194222 3.39353 0.366436C2.92295 0.544206 2.50174 0.817698 2.15158 1.17601C1.79597 1.52611 1.51976 1.95002 1.34463 2.41495C1.17227 2.86077 1.05196 3.3694 1.01915 4.11327C0.983569 4.8627 0.975342 5.10062 0.975342 7.00139C0.975342 8.90216 0.983569 9.14007 1.01637 9.88673C1.04918 10.6306 1.1696 11.142 1.34195 11.5852C1.51976 12.0555 1.79597 12.4767 2.15158 12.8268C2.50174 13.1823 2.92573 13.4586 3.39076 13.6336C3.83665 13.8059 4.34538 13.9262 5.08951 13.959C5.8362 13.9919 6.07427 14 7.9754 14C9.87653 14 10.1145 13.9919 10.8613 13.959C11.6053 13.9262 12.1168 13.8059 12.5599 13.6336C13.501 13.2698 14.245 12.5259 14.6088 11.5852C14.7811 11.1393 14.9015 10.6306 14.9343 9.88673C14.9671 9.14007 14.9753 8.90216 14.9753 7.00139C14.9753 5.10062 14.9726 4.8627 14.9398 4.11605ZM13.6788 9.83203C13.6487 10.5158 13.5338 10.885 13.438 11.1311C13.2028 11.741 12.7186 12.2251 12.1086 12.4603C11.8624 12.556 11.4904 12.6709 10.8092 12.7009C10.0707 12.7338 9.84917 12.7419 7.98084 12.7419C6.11252 12.7419 5.88823 12.7338 5.15234 12.7009C4.46848 12.6709 4.09919 12.556 3.853 12.4603C3.54943 12.3482 3.27311 12.1704 3.04883 11.9379C2.81631 11.7109 2.63851 11.4374 2.52631 11.1339C2.43057 10.8877 2.31571 10.5158 2.28568 9.83481C2.25277 9.09638 2.24465 8.87481 2.24465 7.00684C2.24465 5.13887 2.25277 4.91463 2.28568 4.17898C2.31571 3.49525 2.43057 3.12603 2.52631 2.87989C2.63851 2.57627 2.81631 2.30011 3.0516 2.07576C3.27856 1.84329 3.5521 1.66552 3.85578 1.55345C4.10197 1.45773 4.47403 1.34289 5.15511 1.31276C5.89368 1.27996 6.1153 1.27174 7.98352 1.27174C9.85462 1.27174 10.0761 1.27996 10.812 1.31276C11.4959 1.34289 11.8652 1.45773 12.1114 1.55345C12.4149 1.66552 12.6912 1.84329 12.9155 2.07576C13.148 2.30278 13.3259 2.57627 13.438 2.87989C13.5338 3.12603 13.6487 3.49792 13.6788 4.17898C13.7116 4.9174 13.7198 5.13887 13.7198 7.00684C13.7198 8.87481 13.7116 9.0936 13.6788 9.83203Z" fill="#333333"/>
<path d="M7.97812 3.40494C5.99225 3.40494 4.38101 5.01576 4.38101 7.00135C4.38101 8.98695 5.99225 10.5978 7.97812 10.5978C9.96409 10.5978 11.5752 8.98695 11.5752 7.00135C11.5752 5.01576 9.96409 3.40494 7.97812 3.40494ZM7.97812 9.33426C6.68979 9.33426 5.64476 8.28954 5.64476 7.00135C5.64476 5.71317 6.68979 4.66845 7.97812 4.66845C9.26655 4.66845 10.3115 5.71317 10.3115 7.00135C10.3115 8.28954 9.26655 9.33426 7.97812 9.33426Z" fill="#333333"/>
<path d="M12.5573 3.26276C12.5573 3.72641 12.1813 4.10236 11.7174 4.10236C11.2537 4.10236 10.8777 3.72641 10.8777 3.26276C10.8777 2.79899 11.2537 2.42316 11.7174 2.42316C12.1813 2.42316 12.5573 2.79899 12.5573 3.26276Z" fill="#333333"/>
</svg>
